<svg xmlns="http://www.w3.org/2000/svg" viewBox="0 0 64 64" role="img" aria-label="Universal Paperclips">
  <rect width="64" height="64" rx="12" fill="#2e2e2e"/>
  <rect x="7" y="7" width="50" height="50" rx="10" fill="#333333" stroke="#5c5c5c" stroke-width="2"/>
  <path d="M24 38V20c0-6.2 5-11.2 11.2-11.2S46.4 13.8 46.4 20v24c0 8-6.4 14.4-14.4 14.4S17.6 52 17.6 44V19.6c0-3.8 3-6.8 6.8-6.8s6.8 3 6.8 6.8v22.8c0 2.4 2 4.4 4.4 4.4s4.4-2 4.4-4.4V21" fill="none" stroke="#d9d9d9" stroke-width="5" stroke-linecap="round" stroke-linejoin="round"/>
  <path d="M24 38V20c0-6.2 5-11.2 11.2-11.2S46.4 13.8 46.4 20v24c0 8-6.4 14.4-14.4 14.4S17.6 52 17.6 44V19.6c0-3.8 3-6.8 6.8-6.8s6.8 3 6.8 6.8v22.8c0 2.4 2 4.4 4.4 4.4s4.4-2 4.4-4.4V21" fill="none" stroke="#f6f6f6" stroke-width="2" stroke-linecap="round" stroke-linejoin="round"/>
</svg>
